<svg id="Layer_1" data-name="Layer 1" xmlns="http://www.w3.org/2000/svg" viewBox="0 0 512 512"><defs><style>.cls-1{opacity:0;}.cls-2{fill:#5b4277;}.cls-3{fill:#378bba;}.cls-4{fill:#30b9db;}</style></defs><title>scythe</title><path class="cls-1" d="M0,0H512V512H0V0Z"/><path class="cls-2" d="M296.63,25.41c-63.79.39-135.81,14.68-206,32.84-3.47,34.08,2.23,68.91,14,104.25,76.55-86.56,289-117.67,382.1-34.5C456,50.47,384,24.87,296.62,25.41h0Zm-231,36L27.91,71c5.64,78,28.55,132.39,60.44,174.47-16.54,10.35-40.69,19.67-68.78,26.84,5.66,6.6,14.25,16.18,30.53,18.53,24.85-4.33,39.91-15,53.75-26.59,76.24,85.14,190.22,119,253.13,224.22l49.44-.13C291,275.32,81,364.8,65.66,61.44h0Z"/><path class="cls-3" d="M225.38,229.5L347.88,107v61.25L286.63,229.5l61.25,61.25V352Z"/><path class="cls-3" d="M304.13,229.5l43.75-43.75v87.5Z"/><path class="cls-4" d="M483.5,229.5L356.63,107v61.25l61.25,61.25-61.25,61.25V352Z"/></svg>